<svg xmlns="http://www.w3.org/2000/svg" xmlns:xlink="http://www.w3.org/1999/xlink" width="1000" zoomAndPan="magnify" viewBox="0 0 750 374.999991" height="500" preserveAspectRatio="xMidYMid meet" version="1.0"><defs><g/><clipPath id="id1"><path d="M 45 162 L 706 162 L 706 190 L 45 190 Z M 45 162 " clip-rule="nonzero"/></clipPath><clipPath id="id2"><path d="M 374.996094 -419.667969 L 970.023438 175.359375 L 374.996094 770.390625 L -220.035156 175.359375 Z M 374.996094 -419.667969 " clip-rule="nonzero"/></clipPath><clipPath id="id3"><path d="M 374.996094 -419.667969 L 970.023438 175.359375 L 374.996094 770.390625 L -220.035156 175.359375 Z M 374.996094 -419.667969 " clip-rule="nonzero"/></clipPath><clipPath id="id4"><path d="M 95 44 L 697 44 L 697 337 L 95 337 Z M 95 44 " clip-rule="nonzero"/></clipPath><clipPath id="id5"><path d="M 145.324219 -349.246094 L 935.660156 -60.296875 L 646.707031 730.039062 L -143.628906 441.085938 Z M 145.324219 -349.246094 " clip-rule="nonzero"/></clipPath><clipPath id="id6"><path d="M 145.324219 -349.246094 L 935.660156 -60.296875 L 646.707031 730.039062 L -143.628906 441.085938 Z M 145.324219 -349.246094 " clip-rule="nonzero"/></clipPath></defs><g clip-path="url(#id1)"><g clip-path="url(#id2)"><g clip-path="url(#id3)"><path fill="#ffffff" d="M 682.511719 180.996094 C 684.539062 184.832031 688.511719 187.480469 693.148438 187.476562 C 699.832031 187.496094 705.246094 182.089844 705.253906 175.414062 C 705.269531 168.734375 699.871094 163.316406 693.1875 163.308594 C 688.355469 163.300781 684.210938 166.152344 682.265625 170.238281 L 519.621094 163.042969 L 58.132812 162.324219 C 50.949219 162.3125 45.113281 168.121094 45.109375 175.304688 C 45.09375 182.480469 50.910156 188.316406 58.089844 188.324219 L 519.585938 189.050781 Z M 682.511719 180.996094 " fill-opacity="1" fill-rule="nonzero"/></g></g></g><g clip-path="url(#id4)"><g clip-path="url(#id5)"><g clip-path="url(#id6)"><path fill="#ffffff" d="M 677.28125 65.945312 C 680.738281 68.574219 685.457031 69.300781 689.65625 67.34375 C 695.730469 64.546875 698.359375 57.363281 695.554688 51.300781 C 692.753906 45.238281 685.578125 42.601562 679.511719 45.410156 C 675.125 47.433594 672.570312 51.769531 672.523438 56.292969 L 521.992188 118.292969 L 103.15625 312.070312 C 96.636719 315.082031 93.792969 322.8125 96.8125 329.328125 C 99.820312 335.84375 107.554688 338.683594 114.070312 335.667969 L 532.917969 141.894531 Z M 677.28125 65.945312 " fill-opacity="1" fill-rule="nonzero"/></g></g></g><g fill="#dd8500" fill-opacity="1"><g transform="translate(71.197284, 146.011968)"><g><path d="M 26.679688 -54.292969 L 6.203125 -54.292969 L 6.203125 0 L 26.679688 0 C 42.660156 0 54.214844 -11.402344 54.214844 -27.144531 C 54.214844 -42.890625 42.660156 -54.292969 26.679688 -54.292969 Z M 26.449219 -10.859375 L 17.917969 -10.859375 L 17.917969 -43.355469 L 26.449219 -43.355469 C 35.753906 -43.355469 42.191406 -36.761719 42.191406 -27.144531 C 42.191406 -17.683594 35.753906 -10.859375 26.449219 -10.859375 Z M 26.449219 -10.859375 "/></g></g></g><g fill="#dd8500" fill-opacity="1"><g transform="translate(128.66075, 146.011968)"><g><path d="M 26.835938 -42.117188 C 21.40625 -42.117188 17.683594 -40.410156 14.660156 -36.6875 L 12.640625 -41.882812 L 5.429688 -41.882812 L 5.429688 0 L 16.753906 0 L 16.753906 -21.71875 C 16.753906 -28.542969 19.234375 -31.410156 25.59375 -31.410156 L 30.558594 -31.410156 L 30.558594 -42.117188 Z M 26.835938 -42.117188 "/></g></g></g><g fill="#dd8500" fill-opacity="1"><g transform="translate(160.222993, 146.011968)"><g><path d="M 24.507812 1.242188 C 36.375 1.242188 44.210938 -6.359375 44.210938 -17.683594 L 44.210938 -41.882812 L 32.886719 -41.882812 L 32.886719 -18.925781 C 32.886719 -13.03125 29.785156 -9.460938 24.507812 -9.460938 C 19.3125 -9.460938 16.132812 -12.953125 16.132812 -18.925781 L 16.132812 -41.882812 L 4.808594 -41.882812 L 4.808594 -17.683594 C 4.808594 -6.359375 12.71875 1.242188 24.507812 1.242188 Z M 24.507812 1.242188 "/></g></g></g><g fill="#dd8500" fill-opacity="1"><g transform="translate(209.311217, 146.011968)"><g><path d="M 53.050781 -42.8125 C 47.699219 -42.8125 42.96875 -40.175781 40.097656 -36.144531 C 37.617188 -40.332031 33.273438 -42.8125 27.921875 -42.8125 C 22.957031 -42.8125 18.382812 -40.410156 15.433594 -36.6875 L 13.339844 -41.882812 L 5.429688 -41.882812 L 5.429688 0 L 16.753906 0 L 16.753906 -22.648438 C 16.753906 -29.164062 19.777344 -32.886719 24.898438 -32.886719 C 28.929688 -32.886719 31.101562 -29.9375 31.101562 -24.355469 L 31.101562 0 L 42.117188 0 L 42.117188 -22.648438 C 42.117188 -29.164062 45.140625 -32.886719 50.179688 -32.886719 C 54.292969 -32.886719 56.464844 -29.9375 56.464844 -24.355469 L 56.464844 0 L 67.789062 0 L 67.789062 -26.214844 C 67.789062 -36.066406 61.738281 -42.8125 53.050781 -42.8125 Z M 53.050781 -42.8125 "/></g></g></g><g fill="#dd8500" fill-opacity="1"><g transform="translate(282.051737, 146.011968)"><g><path d="M 5.429688 0 L 16.753906 0 L 16.753906 -56.929688 L 5.429688 -56.929688 Z M 5.429688 0 "/></g></g></g><g fill="#dd8500" fill-opacity="1"><g transform="translate(304.230626, 146.011968)"><g><path d="M 5.429688 -47.46875 L 16.675781 -47.46875 L 16.675781 -57.9375 L 5.429688 -57.9375 Z M 5.429688 0 L 16.753906 0 L 16.753906 -41.882812 L 5.429688 -41.882812 Z M 5.429688 0 "/></g></g></g><g fill="#dd8500" fill-opacity="1"><g transform="translate(326.409514, 146.011968)"><g><path d="M 29.242188 -42.8125 C 23.578125 -42.8125 18.535156 -40.410156 15.355469 -36.6875 L 13.183594 -41.882812 L 5.429688 -41.882812 L 5.429688 0 L 16.753906 0 L 16.753906 -21.949219 C 16.753906 -28.699219 20.320312 -32.886719 26.136719 -32.886719 C 31.023438 -32.886719 33.429688 -29.859375 33.429688 -23.5 L 33.429688 0 L 44.753906 0 L 44.753906 -25.363281 C 44.753906 -35.988281 38.78125 -42.8125 29.242188 -42.8125 Z M 29.242188 -42.8125 "/></g></g></g><g fill="#dd8500" fill-opacity="1"><g transform="translate(376.118112, 146.011968)"><g><path d="M 46.070312 -21.019531 C 46.070312 -33.117188 37.230469 -43.046875 24.355469 -43.046875 C 11.945312 -43.046875 2.636719 -33.507812 2.636719 -20.941406 C 2.636719 -8.375 12.023438 1.242188 24.355469 1.242188 C 34.125 1.242188 42.117188 -4.574219 45.140625 -13.726562 L 33.273438 -13.726562 C 31.566406 -10.703125 28.308594 -8.84375 24.355469 -8.84375 C 18.847656 -8.84375 15.125 -12.023438 14.117188 -17.761719 L 45.839844 -17.761719 C 45.992188 -18.847656 46.070312 -19.933594 46.070312 -21.019531 Z M 24.355469 -33.351562 C 29.472656 -33.351562 33.117188 -30.558594 34.746094 -25.441406 L 14.425781 -25.441406 C 15.746094 -30.402344 19.3125 -33.351562 24.355469 -33.351562 Z M 24.355469 -33.351562 "/></g></g></g></svg>