<svg xmlns="http://www.w3.org/2000/svg" xmlns:xlink="http://www.w3.org/1999/xlink" width="700" zoomAndPan="magnify" viewBox="0 0 525 262.499992" height="350" preserveAspectRatio="xMidYMid meet" version="1.0"><defs><g/><clipPath id="id1"><path d="M 0.5 0 L 524.5 0 L 524.5 262 L 0.5 262 Z M 0.5 0 " clip-rule="nonzero"/></clipPath><clipPath id="id2"><path d="M 31 113 L 494 113 L 494 133 L 31 133 Z M 31 113 " clip-rule="nonzero"/></clipPath><clipPath id="id3"><path d="M 262.496094 -293.210938 L 678.542969 122.835938 L 262.496094 538.882812 L -153.550781 122.835938 Z M 262.496094 -293.210938 " clip-rule="nonzero"/></clipPath><clipPath id="id4"><path d="M 262.496094 -293.210938 L 678.542969 122.835938 L 262.496094 538.882812 L -153.550781 122.835938 Z M 262.496094 -293.210938 " clip-rule="nonzero"/></clipPath><clipPath id="id5"><path d="M 262.496094 -293.210938 L 678.542969 122.835938 L 262.496094 538.882812 L -153.550781 122.835938 Z M 262.496094 -293.210938 " clip-rule="nonzero"/></clipPath><clipPath id="id6"><path d="M 67 30 L 488 30 L 488 236 L 67 236 Z M 67 30 " clip-rule="nonzero"/></clipPath><clipPath id="id7"><path d="M 102.03125 -244.007812 L 654.214844 -42.128906 L 452.332031 510.054688 L -99.847656 308.175781 Z M 102.03125 -244.007812 " clip-rule="nonzero"/></clipPath><clipPath id="id8"><path d="M 102.03125 -244.007812 L 654.214844 -42.128906 L 452.332031 510.054688 L -99.847656 308.175781 Z M 102.03125 -244.007812 " clip-rule="nonzero"/></clipPath><clipPath id="id9"><path d="M 102.03125 -244.007812 L 654.214844 -42.128906 L 452.332031 510.054688 L -99.847656 308.175781 Z M 102.03125 -244.007812 " clip-rule="nonzero"/></clipPath></defs><g clip-path="url(#id1)"><path fill="#ffffff" d="M 0.5 0 L 524.5 0 L 524.5 269.488281 L 0.5 269.488281 Z M 0.5 0 " fill-opacity="1" fill-rule="nonzero"/><path fill="#ffffff" d="M 0.5 0 L 524.5 0 L 524.5 262 L 0.5 262 Z M 0.5 0 " fill-opacity="1" fill-rule="nonzero"/><path fill="#ffffff" d="M 0.5 0 L 524.5 0 L 524.5 262 L 0.5 262 Z M 0.5 0 " fill-opacity="1" fill-rule="nonzero"/><path fill="#ffffff" d="M 0.5 0 L 524.5 0 L 524.5 262 L 0.5 262 Z M 0.5 0 " fill-opacity="1" fill-rule="nonzero"/></g><g clip-path="url(#id2)"><g clip-path="url(#id3)"><g clip-path="url(#id4)"><g clip-path="url(#id5)"><path fill="#000000" d="M 477.511719 126.777344 C 478.929688 129.460938 481.707031 131.3125 484.949219 131.308594 C 489.621094 131.324219 493.40625 127.542969 493.414062 122.875 C 493.421875 118.203125 489.648438 114.417969 484.976562 114.410156 C 481.597656 114.40625 478.699219 116.398438 477.339844 119.257812 L 363.617188 114.226562 L 40.945312 113.722656 C 35.921875 113.714844 31.839844 117.777344 31.835938 122.800781 C 31.824219 127.816406 35.894531 131.894531 40.914062 131.902344 L 363.59375 132.410156 Z M 477.511719 126.777344 " fill-opacity="1" fill-rule="nonzero"/></g></g></g></g><g clip-path="url(#id6)"><g clip-path="url(#id7)"><g clip-path="url(#id8)"><g clip-path="url(#id9)"><path fill="#000000" d="M 473.695312 46.074219 C 476.109375 47.910156 479.40625 48.417969 482.339844 47.050781 C 486.582031 45.097656 488.421875 40.078125 486.460938 35.84375 C 484.503906 31.605469 479.492188 29.761719 475.253906 31.726562 C 472.1875 33.140625 470.402344 36.167969 470.371094 39.332031 L 365.199219 82.648438 L 72.570312 218.03125 C 68.015625 220.140625 66.027344 225.539062 68.140625 230.09375 C 70.242188 234.644531 75.644531 236.628906 80.195312 234.519531 L 372.832031 99.136719 Z M 473.695312 46.074219 " fill-opacity="1" fill-rule="nonzero"/></g></g></g></g><g fill="#dd8500" fill-opacity="1"><g transform="translate(50.242406, 102.014073)"><g><path d="M 18.640625 -37.933594 L 4.335938 -37.933594 L 4.335938 0 L 18.640625 0 C 29.804688 0 37.878906 -7.964844 37.878906 -18.964844 C 37.878906 -29.964844 29.804688 -37.933594 18.640625 -37.933594 Z M 18.476562 -7.585938 L 12.519531 -7.585938 L 12.519531 -30.292969 L 18.476562 -30.292969 C 24.980469 -30.292969 29.480469 -25.6875 29.480469 -18.964844 C 29.480469 -12.355469 24.980469 -7.585938 18.476562 -7.585938 Z M 18.476562 -7.585938 "/></g></g></g><g fill="#dd8500" fill-opacity="1"><g transform="translate(90.39036, 102.014073)"><g><path d="M 18.75 -29.425781 C 14.957031 -29.425781 12.355469 -28.234375 10.242188 -25.632812 L 8.832031 -29.261719 L 3.792969 -29.261719 L 3.792969 0 L 11.703125 0 L 11.703125 -15.171875 C 11.703125 -19.941406 13.4375 -21.945312 17.882812 -21.945312 L 21.351562 -21.945312 L 21.351562 -29.425781 Z M 18.75 -29.425781 "/></g></g></g><g fill="#dd8500" fill-opacity="1"><g transform="translate(112.441926, 102.014073)"><g><path d="M 17.125 0.867188 C 25.414062 0.867188 30.886719 -4.445312 30.886719 -12.355469 L 30.886719 -29.261719 L 22.976562 -29.261719 L 22.976562 -13.222656 C 22.976562 -9.105469 20.808594 -6.609375 17.125 -6.609375 C 13.492188 -6.609375 11.269531 -9.050781 11.269531 -13.222656 L 11.269531 -29.261719 L 3.359375 -29.261719 L 3.359375 -12.355469 C 3.359375 -4.445312 8.886719 0.867188 17.125 0.867188 Z M 17.125 0.867188 "/></g></g></g><g fill="#dd8500" fill-opacity="1"><g transform="translate(146.738356, 102.014073)"><g><path d="M 37.066406 -29.914062 C 33.328125 -29.914062 30.019531 -28.070312 28.015625 -25.253906 C 26.28125 -28.179688 23.246094 -29.914062 19.507812 -29.914062 C 16.039062 -29.914062 12.84375 -28.234375 10.785156 -25.632812 L 9.320312 -29.261719 L 3.792969 -29.261719 L 3.792969 0 L 11.703125 0 L 11.703125 -15.824219 C 11.703125 -20.375 13.816406 -22.976562 17.394531 -22.976562 C 20.210938 -22.976562 21.730469 -20.917969 21.730469 -17.015625 L 21.730469 0 L 29.425781 0 L 29.425781 -15.824219 C 29.425781 -20.375 31.539062 -22.976562 35.058594 -22.976562 C 37.933594 -22.976562 39.449219 -20.917969 39.449219 -17.015625 L 39.449219 0 L 47.359375 0 L 47.359375 -18.316406 C 47.359375 -25.199219 43.132812 -29.914062 37.066406 -29.914062 Z M 37.066406 -29.914062 "/></g></g></g><g fill="#dd8500" fill-opacity="1"><g transform="translate(197.559916, 102.014073)"><g><path d="M 3.792969 0 L 11.703125 0 L 11.703125 -39.773438 L 3.792969 -39.773438 Z M 3.792969 0 "/></g></g></g><g fill="#dd8500" fill-opacity="1"><g transform="translate(213.055622, 102.014073)"><g><path d="M 3.792969 -33.164062 L 11.652344 -33.164062 L 11.652344 -40.480469 L 3.792969 -40.480469 Z M 3.792969 0 L 11.703125 0 L 11.703125 -29.261719 L 3.792969 -29.261719 Z M 3.792969 0 "/></g></g></g><g fill="#dd8500" fill-opacity="1"><g transform="translate(228.551328, 102.014073)"><g><path d="M 20.429688 -29.914062 C 16.472656 -29.914062 12.953125 -28.234375 10.730469 -25.632812 L 9.210938 -29.261719 L 3.792969 -29.261719 L 3.792969 0 L 11.703125 0 L 11.703125 -15.335938 C 11.703125 -20.050781 14.199219 -22.976562 18.261719 -22.976562 C 21.675781 -22.976562 23.355469 -20.863281 23.355469 -16.417969 L 23.355469 0 L 31.265625 0 L 31.265625 -17.71875 C 31.265625 -25.144531 27.09375 -29.914062 20.429688 -29.914062 Z M 20.429688 -29.914062 "/></g></g></g><g fill="#dd8500" fill-opacity="1"><g transform="translate(263.281194, 102.014073)"><g><path d="M 32.1875 -14.683594 C 32.1875 -23.140625 26.011719 -30.074219 17.015625 -30.074219 C 8.34375 -30.074219 1.84375 -23.410156 1.84375 -14.632812 C 1.84375 -5.851562 8.398438 0.867188 17.015625 0.867188 C 23.84375 0.867188 29.425781 -3.195312 31.539062 -9.589844 L 23.246094 -9.589844 C 22.054688 -7.476562 19.777344 -6.175781 17.015625 -6.175781 C 13.167969 -6.175781 10.566406 -8.398438 9.863281 -12.410156 L 32.027344 -12.410156 C 32.132812 -13.167969 32.1875 -13.925781 32.1875 -14.683594 Z M 17.015625 -23.300781 C 20.59375 -23.300781 23.140625 -21.351562 24.277344 -17.773438 L 10.078125 -17.773438 C 11 -21.242188 13.492188 -23.300781 17.015625 -23.300781 Z M 17.015625 -23.300781 "/></g></g></g></svg>